<svg width="19" height="19" viewBox="0 0 19 19" fill="none" xmlns="http://www.w3.org/2000/svg">
<path d="M17.1576 9.41854C17.1291 9.48754 17.0879 9.54971 17.0362 9.60146L11.7862 14.8515C11.6767 14.961 11.5327 15.0164 11.3887 15.0164C11.2447 15.0164 11.1006 14.9617 10.9911 14.8515C10.7714 14.6317 10.7714 14.2754 10.9911 14.0557L15.2811 9.7657H3.13867C2.82817 9.7657 2.57617 9.5137 2.57617 9.2032C2.57617 8.8927 2.82817 8.6407 3.13867 8.6407H15.2804L10.9904 4.35073C10.7707 4.13098 10.7707 3.7747 10.9904 3.55495C11.2102 3.3352 11.5664 3.3352 11.7862 3.55495L17.0362 8.80495C17.0879 8.8567 17.1291 8.91887 17.1576 8.98787C17.2146 9.12587 17.2146 9.28054 17.1576 9.41854Z" fill="#203AA6"/>
</svg>
