<svg width="208" height="418" viewBox="0 0 208 418" fill="none" xmlns="http://www.w3.org/2000/svg">
<path d="M-237.5 417C-98.7 417 13.5 304.8 13.5 166C13.5 27.2 -98.7 -85 -237.5 -85C-376.3 -85 -488.5 27.2 -488.5 166C-488.5 304.8 -376.3 417 -237.5 417Z" stroke="black" stroke-width="2"/>
<path d="M-210 390C-87.2 390 12 290.8 12 168C12 45.2 -87.2 -54 -210 -54C-332.8 -54 -432 45.2 -432 168C-432 290.8 -332.8 390 -210 390Z" stroke="black" stroke-width="2"/>
<path d="M-180.5 360.5C-73.4 360.5 13.5 273.6 13.5 166.5C13.5 59.4 -73.4 -27.5 -180.5 -27.5C-287.6 -27.5 -374.5 59.4 -374.5 166.5C-374.5 273.6 -287.6 360.5 -180.5 360.5Z" stroke="black" stroke-width="2"/>
</svg>
