<svg width="181" height="181" viewBox="0 0 181 181" fill="none" xmlns="http://www.w3.org/2000/svg">
<path d="M90.5 180C140.258 180 180.5 139.758 180.5 90C180.5 40.2421 140.258 0 90.5 0C40.7421 0 0.5 40.2421 0.5 90C0.5 139.758 40.7421 180 90.5 180Z" stroke="black" stroke-width="2"/>
<path d="M90 155C126.451 155 156 125.451 156 89C156 52.5492 126.451 23 90 23C53.5492 23 24 52.5492 24 89C24 125.451 53.5492 155 90 155Z" stroke="black" stroke-width="2"/>
<path d="M90 129C112.091 129 130 111.091 130 89C130 66.9086 112.091 49 90 49C67.9086 49 50 66.9086 50 89C50 111.091 67.9086 129 90 129Z" stroke="black" stroke-width="2"/>
</svg>
