<svg width="20" height="20" viewBox="0 0 20 20" fill="none" xmlns="http://www.w3.org/2000/svg">
<path d="M10 10.8337C10.4603 10.8337 10.8334 10.4606 10.8334 10.0003C10.8334 9.54004 10.4603 9.16699 10 9.16699C9.53978 9.16699 9.16669 9.54004 9.16669 10.0003C9.16669 10.4606 9.53978 10.8337 10 10.8337Z" stroke="#5E5E5E" stroke-width="1.5" stroke-linecap="round" stroke-linejoin="round"/>
<path d="M10 5.00033C10.4603 5.00033 10.8334 4.62724 10.8334 4.16699C10.8334 3.70675 10.4603 3.33366 10 3.33366C9.53978 3.33366 9.16669 3.70675 9.16669 4.16699C9.16669 4.62724 9.53978 5.00033 10 5.00033Z" stroke="#5E5E5E" stroke-width="1.5" stroke-linecap="round" stroke-linejoin="round"/>
<path d="M10 16.667C10.4603 16.667 10.8334 16.2939 10.8334 15.8337C10.8334 15.3734 10.4603 15.0003 10 15.0003C9.53978 15.0003 9.16669 15.3734 9.16669 15.8337C9.16669 16.2939 9.53978 16.667 10 16.667Z" stroke="#5E5E5E" stroke-width="1.5" stroke-linecap="round" stroke-linejoin="round"/>
</svg>
