<svg width="30" height="24" viewBox="0 0 30 24" fill="none" xmlns="http://www.w3.org/2000/svg">
<path d="M29.9124 12.3667C29.8539 12.5082 29.7695 12.6358 29.6633 12.7419L18.8935 23.5118C18.6688 23.7364 18.3734 23.8502 18.078 23.8502C17.7826 23.8502 17.4871 23.7379 17.2625 23.5118C16.8117 23.061 16.8117 22.3301 17.2625 21.8793L26.063 13.0789H1.15391C0.516953 13.0789 0 12.5619 0 11.9249C0 11.288 0.516953 10.771 1.15391 10.771H26.0615L17.261 1.97055C16.8102 1.51976 16.8102 0.788892 17.261 0.338097C17.7118 -0.112699 18.4427 -0.112699 18.8935 0.338097L29.6633 11.108C29.7695 11.2141 29.8539 11.3417 29.9124 11.4832C30.0293 11.7663 30.0293 12.0836 29.9124 12.3667Z" fill="#F8F8F8"/>
</svg>
