<svg width="9" height="13" viewBox="0 0 9 13" fill="none" xmlns="http://www.w3.org/2000/svg">
<path d="M8.21257 12.9923H0.52339C0.233474 12.9923 0 12.7589 0 12.4689V12.4612V0.536217V0.523388C0 0.233472 0.233474 0 0.52339 0H8.21257C8.49992 0 8.73595 0.236038 8.73595 0.523388V2.46557C8.73595 2.75548 8.50248 2.98895 8.21257 2.98895H2.98639V5.00553H8.21257C8.49992 5.00553 8.73595 5.24157 8.73595 5.52892V7.4711C8.73595 7.76102 8.50248 7.99449 8.21257 7.99449H2.98639V10.0111H8.21257C8.49992 10.0111 8.73595 10.2471 8.73595 10.5345V12.4766C8.73595 12.7665 8.50248 13 8.21257 13V12.9923Z" fill="#06C755"/>
</svg>
